# xmcd CD database file
#
# Track frame offsets:
#	150
#	15361
#	27101
#	35961
#	54547
#	67943
#	78624
#	95179
#	105855
#	117241
#	125549
#	134901
#	156324
#	170575
#	193030
#	201291
#
# Disc length: 3030 seconds
#
# Revision: 0
# Processed by: cddbd v1.5.2PL0 Copyright (c) Steve Scherf et al.
# Submitted via: CDex 1.70beta2
#
DISCID=e40bd410
DTITLE=Rita Hayworth - The Show Must Go On
DYEAR=2005
DGENRE=Blues
TTITLE0=You Excite Me
TTITLE1=The Blue Pacific Blues
TTITLE2=Let's Stay Young Forever
TTITLE3=The Shorty Georges (with Fred Astaire and Xavier Cugat)
TTITLE4=Amado Mio
TTITLE5=The Can't Convince Me (with Larry Parks)
TTITLE6=Poor John
TTITLE7=Oh, The Pity Of It All (with Victor Mature)
TTITLE8=The Show Must Go On
TTITLE9=Hear No Evil, See No Evil, Speak No Evil
TTITLE10=Reprise- Put The Blame On Mame
TTITLE11=The Boy I Left Behind (with Janet Blair)
TTITLE12=Trinidad Lady
TTITLE13=People Have More Fun Than Anyone (with Larry Parcs and Marc Platt)
TTITLE14=Reprise- Let's Stay Young Forever (with Larry Parks)
TTITLE15=This Can't Be Legal (with Larry Parcs and Marc Platt)
EXTD=YEAR: 2005
EXTT0=
EXTT1=
EXTT2=
EXTT3=
EXTT4=
EXTT5=
EXTT6=
EXTT7=
EXTT8=
EXTT9=
EXTT10=
EXTT11=
EXTT12=
EXTT13=
EXTT14=
EXTT15=
PLAYORDER=
